# xmcd
#
# Track frame offsets: 
#        150
#        12385
#        26281
#        37162
#        52805
#        64377
#        76989
#        89649
#        102842
#        116283
#        128978
#        138729
#        152782
#        166599
#        180361
#        194994
#        208549
#        219709
#        231517
#
# Disc length: 3262 seconds
#
# Revision: 2
# Processed by: cddbd v1.5.2PL0 Copyright (c) Steve Scherf et al.
# Submitted via: ExactAudioCopy v0.95a5
#
DISCID=0f0cbc13
DTITLE=Frank Sinatra - Everybody Loves Somebody [CD 4)
DYEAR=2005
DGENRE=Jazz, Crooner
TTITLE0=I Could Write A Book
TTITLE1=I Hear A Rhapsody
TTITLE2=My Girl
TTITLE3=The Birth Of The Blues
TTITLE4=Azure-Te (Paris Blues)
TTITLE5=Why Try To Change Me Now
TTITLE6=South Of The Border
TTITLE7=I'm Walking Behind You
TTITLE8=From Here To Eternity
TTITLE9=Young At Heart
TTITLE10=I've Got The World On A String
TTITLE11=Don't Worry 'bout Me
TTITLE12=Melody Of Love
TTITLE13=Three Coins In The Fountain
TTITLE14=Last Night When We Were Young
TTITLE15=Learning The Blues
TTITLE16=Same Old Saturday Night
TTITLE17=Love And Marriage
TTITLE18=Love Is The Tender Trap
EXTD=YEAR: 2005
EXTT0=
EXTT1=
EXTT2=
EXTT3=
EXTT4=
EXTT5=
EXTT6=
EXTT7=
EXTT8=
EXTT9=
EXTT10=
EXTT11=
EXTT12=
EXTT13=
EXTT14=
EXTT15=
EXTT16=
EXTT17=
EXTT18=
PLAYORDER=
